<?xml version="1.0" encoding="utf-8"?>
<!-- Generator: Adobe Illustrator 23.0.2, SVG Export Plug-In . SVG Version: 6.00 Build 0)  -->
<svg version="1.1" id="Layer_1" xmlns="http://www.w3.org/2000/svg" xmlns:xlink="http://www.w3.org/1999/xlink" x="0px" y="0px"
	 viewBox="0 0 50 50" style="enable-background:new 0 0 50 50;" xml:space="preserve">
<style type="text/css">
	.st0{fill:#AA77BB;}
</style>
<g>
	<rect x="19.1" y="19.1" class="st0" width="11.7" height="11.7"/>
	<path class="st0" d="M42.5,27c1,0,2-1,2-2c0-1.2-1-2-2-2h-3.9v-3.9h3.9c1,0,2-1,2-1.9c0-1.2-1-2-2-2h-3.9v-1.9c0-1.2-1-1.9-2-1.9
		h-2v-4c0-1.2-1-1.9-2-1.9s-1.9,0.8-1.9,1.9v3.9H27V7.4c0-1.2-1-1.9-2-1.9s-2,0.8-2,1.9v3.9h-3.9V7.4c0-1.2-1-1.9-1.9-1.9
		c-1,0-2,0.8-2,1.9v3.9h-1.9c-1,0-1.9,0.8-1.9,1.9v1.9h-4c-1,0-1.9,0.8-1.9,2c0,1,1,1.9,1.9,1.9h3.9v4H7.4c-1,0-1.9,0.8-1.9,2
		c0,1,1,2,1.9,2h3.9v3.9H7.4c-1,0-1.9,0.8-1.9,1.9c0,1,1,2,1.9,2h3.9v2c0,1,1,2,1.9,2h1.9v3.9c0,1,1,2,2,2s1.9-1,1.9-2v-3.9h4v3.9
		c0,1,1,2,2,2s2-1,2-2v-3.9h3.9v3.9c0,1,1,2,1.9,2c1,0,2-1,2-2v-3.9h2c1,0,2-1,2-2v-2h3.9c1,0,2-1,2-2c0-1.2-1-1.9-2-1.9h-3.9V27
		H42.5z M34.8,34.8H15.3V15.3h19.5V34.8z"/>
</g>
</svg>
