<?xml version="1.0" encoding="utf-8"?>
<!-- Generator: Adobe Illustrator 23.0.2, SVG Export Plug-In . SVG Version: 6.00 Build 0)  -->
<svg version="1.1" id="Layer_1" xmlns="http://www.w3.org/2000/svg" xmlns:xlink="http://www.w3.org/1999/xlink" x="0px" y="0px"
	 viewBox="0 0 50 50" style="enable-background:new 0 0 50 50;" xml:space="preserve">
<style type="text/css">
	.st0{fill:#FFFFFF;}
	.st1{fill:#AA77BB;}
</style>
<rect x="20.7" y="7.6" class="st0" width="11.3" height="33.1"/>
<ellipse class="st0" cx="35.7" cy="35.8" rx="3.8" ry="7.1"/>
<ellipse class="st0" cx="16.9" cy="36.6" rx="4.5" ry="5.6"/>
<ellipse class="st0" cx="32.3" cy="26.8" rx="2.6" ry="6.4"/>
<ellipse class="st0" cx="20.7" cy="26.8" rx="3" ry="8.6"/>
<ellipse class="st0" cx="17.7" cy="28.3" rx="1.5" ry="4.1"/>
<rect x="9.4" y="34.7" class="st0" width="6.8" height="6.8"/>
<rect x="16.2" y="37.7" class="st0" width="4.5" height="5.3"/>
<rect x="13.9" y="40.7" class="st0" width="3.8" height="1.5"/>
<rect x="31.9" y="39.2" class="st0" width="3" height="4.5"/>
<rect x="37.9" y="36.9" class="st0" width="4.5" height="2.3"/>
<rect x="37.9" y="34.7" class="st0" width="2.3" height="6"/>
<rect x="38.7" y="35.4" class="st0" width="1.5" height="4.5"/>
<rect x="39.4" y="36.2" class="st0" width="1.5" height="3.8"/>
<path class="st1" d="M12.2,42.2c2.2,0.2,4.7,1.7,6.7,2c2,0.2,2.7-1.4,2.7-1.4s2.3-0.5,4.7-0.6s4.7,0.5,4.7,0.5s0.5,1.1,1.3,1.5
	c0.8,0.5,2.6,0.5,3.8-0.7c1.1-1.2,4.2-2.8,5.9-3.8s1.4-2.4,0.3-2.9c-1.1-0.5-2-1.1-2-2.5c0.1-1.4-1-2.3-1-2.3s0.9-2.9,0.1-5.4
	c-0.8-2.4-3.6-6.4-5.7-9.3S33.4,11,31.5,6.7c-2-4.4-6.9-4.1-9.6-2.3S20,10.9,20.2,13s0.1,3.8-0.2,4.3c-0.2,0.6-2,2.6-3.2,4.4
	c-1.1,1.7-2,5.3-2.9,6.8c-0.8,1.5-0.2,2.8-0.2,2.8s-0.6,0.2-1.1,1.1c-0.2,1.1-1.1,1.5-2.7,1.8s-1.6,1.4-1.2,2.5
	c0.4,1.1,0,1.8-0.5,3.3C7.7,41.5,10,42,12.2,42.2z M34.9,35.5c1.1,0.5,2.8-0.2,3.3-0.7s0.8-1.2,0.8-1.2s0.5,0.2,0.5,1.1
	c-0.1,0.8,0.4,2,1.1,2.3c0.8,0.4,1.9,1,1.3,1.5s-4,1.9-5,2.9c-1,1.1-2.3,1.9-3.1,1.7s-1.5-1.4-1.1-2.9c0.4-1.6,0.7-3.3,0.6-4.4
	c-0.1-1-0.2-2.3,0-2.6c0.2-0.2,0.7-0.1,0.7-0.1S33.7,35,34.9,35.5z M27.4,8.5c1.1,0,2,1.1,2,2.4c0,1-0.5,1.8-1.1,2.2
	c-0.2-0.1-0.3-0.2-0.5-0.2c0.4-0.2,0.7-0.7,0.7-1.3c0-0.8-0.5-1.4-1.1-1.4s-1.1,0.6-1.1,1.4c0,0.3,0.1,0.5,0.2,0.8
	c-0.4-0.2-0.7-0.2-0.9-0.4c-0.2-0.3-0.2-0.7-0.2-1.1C25.4,9.6,26.3,8.5,27.4,8.5z M24.7,12.8c0.5,0.1,2,0.8,2.6,0.9
	c0.5,0.2,1.1,0.5,1.1,0.9C28.3,15,28,15,27.3,15.4c-0.8,0.5-2.3,1.4-2.9,1.5c-0.5,0.1-0.8-0.2-1.4-0.6c-0.5-0.4-1.6-1.2-1.4-1.7
	c0,0,0.8-0.6,1.1-0.9C23.2,13.4,24.1,12.6,24.7,12.8z M22.3,8.9c0.9,0,1.6,1.1,1.6,2.3c0,0.2,0,0.5-0.1,0.7
	c-0.2,0.1-0.5,0.2-0.7,0.4c-0.1,0.1-0.2,0.2-0.3,0.2c0.2-0.2,0.2-0.6,0.2-1.1c-0.2-0.7-0.6-1.2-1.1-1.1s-0.8,0.7-0.6,1.4
	c0.2,0.7,0.6,1.2,1.1,1.1h0.1c-0.2,0.2-0.5,0.4-0.7,0.5c-0.6-0.3-1.1-1.2-1.1-2.2C20.7,9.9,21.4,8.9,22.3,8.9z M17.5,25.6
	c0.9-1.4,1.5-4.5,2.4-5.5c0.9-1.1,1.6-3.2,1.3-4.1c0,0,2,2.3,3.3,2c1.4-0.4,4.4-2.6,4.8-2.3c0.5,0.4,4.3,8.9,4.7,11.6
	S33.8,32,33.8,32s-1.5-0.4-1.7,0.5c-0.2,0.9-0.2,4.2-0.2,4.2s-2,2.8-5.1,3.2c-3.1,0.5-4.7,0.2-4.7,0.2l-1.7-2c0,0,1.4-0.2,1.1-1.6
	c-0.2-1.4-4.1-3.2-4.8-4.9C16,29.8,16.5,27,17.5,25.6z M9.8,35.7c0.2-0.7,2.2-0.7,3-1.2s0.9-1.8,1.6-2.2c0.6-0.4,1.7,0.9,2.2,1.7
	c0.5,0.7,2.2,3.8,2.9,4.6c0.8,0.8,1.4,1.8,1.2,2.7c-0.2,0.9-1.3,1.6-1.3,1.6c-1,0.3-3.7-0.9-4.9-1.4s-4.4-0.7-4.7-1.1
	c-0.5-0.5,0.2-1.5,0.4-2.5C10.1,36.9,9.7,36.3,9.8,35.7z"/>
</svg>
