<?xml version="1.0" encoding="utf-8"?>
<!-- Generator: Adobe Illustrator 23.0.3, SVG Export Plug-In . SVG Version: 6.00 Build 0)  -->
<svg version="1.1" id="Layer_1" xmlns="http://www.w3.org/2000/svg" xmlns:xlink="http://www.w3.org/1999/xlink" x="0px" y="0px"
	 viewBox="0 0 20 20" style="enable-background:new 0 0 20 20;" xml:space="preserve">
<style type="text/css">
	.st0{fill:#FFFFFF;}
</style>
<g>
	<rect x="7" y="7" class="st0" width="6" height="6"/>
	<path class="st0" d="M19,11c0.5,0,1-0.5,1-1c0-0.6-0.5-1-1-1h-2V7h2c0.5,0,1-0.5,1-1c0-0.6-0.5-1-1-1h-2V4c0-0.6-0.5-1-1-1h-1V1
		c0-0.6-0.5-1-1-1s-1,0.4-1,1v2h-2V1c0-0.6-0.5-1-1-1S9,0.4,9,1v2H7V1c0-0.6-0.5-1-1-1S5,0.4,5,1v2H4C3.5,3,3,3.4,3,4v1H1
		C0.5,5,0,5.4,0,6c0,0.5,0.5,1,1,1h2v2H1c-0.5,0-1,0.4-1,1c0,0.5,0.5,1,1,1h2v2H1c-0.5,0-1,0.4-1,1c0,0.5,0.5,1,1,1h2v1
		c0,0.5,0.5,1,1,1h1v2c0,0.5,0.5,1,1,1s1-0.5,1-1v-2h2v2c0,0.5,0.5,1,1,1s1-0.5,1-1v-2h2v2c0,0.5,0.5,1,1,1s1-0.5,1-1v-2h1
		c0.5,0,1-0.5,1-1v-1h2c0.5,0,1-0.5,1-1c0-0.6-0.5-1-1-1h-2v-2H19z M15,15H5V5h10V15z"/>
</g>
</svg>
