<?xml version="1.0" encoding="utf-8"?>
<!-- Generator: Adobe Illustrator 23.0.3, SVG Export Plug-In . SVG Version: 6.00 Build 0)  -->
<svg version="1.1" id="Layer_1" xmlns="http://www.w3.org/2000/svg" xmlns:xlink="http://www.w3.org/1999/xlink" x="0px" y="0px"
	 viewBox="0 0 48 56" style="enable-background:new 0 0 48 56;" xml:space="preserve">
<style type="text/css">
	.st0{fill:#AA77BB;}
	.st1{fill:#FFFFFF;}
</style>
<rect x="17" y="7" class="st0" width="15" height="44"/>
<ellipse class="st0" cx="37" cy="44.5" rx="5" ry="9.5"/>
<ellipse class="st0" cx="12" cy="45.5" rx="6" ry="7.5"/>
<ellipse class="st0" cx="32.5" cy="32.5" rx="3.5" ry="8.5"/>
<ellipse class="st0" cx="17" cy="32.5" rx="4" ry="11.5"/>
<ellipse class="st0" cx="13" cy="34.5" rx="2" ry="5.5"/>
<rect x="2" y="43" class="st0" width="9" height="9"/>
<rect x="11" y="47" class="st0" width="6" height="7"/>
<rect x="8" y="51" class="st0" width="5" height="2"/>
<rect x="32" y="49" class="st0" width="4" height="6"/>
<rect x="40" y="46" class="st0" width="6" height="3"/>
<rect x="40" y="43" class="st0" width="3" height="8"/>
<rect x="41" y="44" class="st0" width="2" height="6"/>
<rect x="42" y="45" class="st0" width="2" height="5"/>
<path class="st1" d="M5.7,53c2.9,0.3,6.2,2.2,8.9,2.6c2.7,0.3,3.6-1.9,3.6-1.9s3.1-0.7,6.3-0.8c3.2-0.1,6.3,0.7,6.3,0.7
	s0.6,1.4,1.7,2c1.1,0.6,3.5,0.7,5-0.9c1.5-1.6,5.6-3.7,7.9-5c2.3-1.3,1.9-3.2,0.4-3.8c-1.5-0.6-2.6-1.5-2.6-3.3c0.1-1.8-1.3-3-1.3-3
	s1.2-3.9,0.1-7.2c-1.1-3.2-4.8-8.5-7.6-12.4c-2.8-3.9-0.4-8.5-3-14.3c-2.6-5.8-9.2-5.5-12.8-3c-3.6,2.5-2.5,8.6-2.3,11.5
	c0.2,2.9,0.1,5-0.3,5.7c-0.3,0.8-2.6,3.5-4.2,5.8c-1.5,2.3-2.6,7.1-3.8,9.1c-1.1,2-0.3,3.7-0.3,3.7s-0.8,0.3-1.4,1.5
	C6,41.4,4.8,42,2.7,42.4c-2.1,0.4-2.1,1.8-1.6,3.3c0.5,1.5,0,2.4-0.6,4.4C-0.2,52.1,2.8,52.7,5.7,53z M35.9,44.1
	c1.5,0.7,3.7-0.3,4.4-0.9c0.7-0.7,1.1-1.6,1.1-1.6s0.7,0.3,0.6,1.4c-0.1,1.1,0.5,2.6,1.5,3.1c1,0.5,2.5,1.3,1.7,2
	c-0.8,0.7-5.3,2.5-6.6,3.9c-1.3,1.4-3,2.5-4.1,2.2c-1.1-0.3-2-1.8-1.5-3.9c0.5-2.1,0.9-4.4,0.8-5.8c-0.1-1.3-0.3-3.1,0-3.4
	c0.3-0.3,0.9-0.1,0.9-0.1S34.3,43.4,35.9,44.1z M26,8.2c1.5,0,2.6,1.5,2.6,3.2c0,1.3-0.6,2.4-1.5,2.9c-0.2-0.1-0.4-0.2-0.7-0.3
	c0.5-0.3,0.9-0.9,0.9-1.7c0-1-0.6-1.8-1.4-1.8c-0.8,0-1.4,0.8-1.4,1.8c0,0.4,0.1,0.7,0.2,1c-0.5-0.2-0.9-0.3-1.2-0.5
	c-0.2-0.4-0.3-0.9-0.3-1.5C23.3,9.6,24.5,8.2,26,8.2z M22.4,13.8c0.7,0.1,2.7,1,3.4,1.2c0.7,0.3,1.5,0.7,1.5,1.2
	c-0.1,0.5-0.5,0.5-1.5,1.1c-1,0.6-3.1,1.9-3.8,2c-0.7,0.1-1.1-0.3-1.8-0.8c-0.7-0.5-2.1-1.6-1.8-2.2c0,0,1.1-0.8,1.5-1.2
	C20.4,14.6,21.6,13.6,22.4,13.8z M19.2,8.7c1.2,0,2.1,1.4,2.1,3.1c0,0.3,0,0.6-0.1,0.9c-0.3,0.1-0.6,0.2-0.9,0.5
	c-0.1,0.1-0.3,0.2-0.4,0.3c0.2-0.3,0.3-0.8,0.2-1.4c-0.2-0.9-0.8-1.6-1.4-1.5c-0.6,0.1-1,0.9-0.8,1.9c0.2,0.9,0.8,1.6,1.4,1.5
	c0,0,0.1,0,0.1,0c-0.3,0.3-0.6,0.5-0.9,0.7c-0.8-0.4-1.5-1.6-1.5-2.9C17.1,10,18,8.7,19.2,8.7z M12.8,30.9c1.2-1.9,2-6,3.2-7.3
	c1.2-1.4,2.1-4.3,1.7-5.5c0,0,2.6,3.1,4.4,2.6c1.8-0.5,5.8-3.5,6.4-3c0.6,0.5,5.7,11.8,6.2,15.4c0.5,3.6-0.3,6.3-0.3,6.3
	s-2-0.5-2.2,0.7c-0.3,1.2-0.3,5.6-0.3,5.6s-2.6,3.7-6.8,4.3c-4.1,0.6-6.2,0.2-6.2,0.2l-2.3-2.6c0,0,1.8-0.3,1.5-2.1
	c-0.3-1.8-5.5-4.3-6.4-6.5C10.8,36.5,11.5,32.8,12.8,30.9z M2.6,44.3c0.2-0.9,2.9-0.9,3.9-1.5c1-0.6,1.2-2.4,2.1-2.9
	c0.8-0.5,2.3,1.2,2.9,2.2c0.6,0.9,2.9,5,3.9,6.1c1,1,1.8,2.4,1.6,3.6c-0.3,1.2-1.7,2.1-1.7,2.1c-1.3,0.4-4.9-1.2-6.5-1.8
	c-1.6-0.7-5.8-0.9-6.3-1.5c-0.6-0.6,0.3-2,0.5-3.3C3,46,2.4,45.2,2.6,44.3z"/>
</svg>
