<?xml version="1.0" encoding="utf-8"?>
<!-- Generator: Adobe Illustrator 23.0.2, SVG Export Plug-In . SVG Version: 6.00 Build 0)  -->
<svg version="1.1" id="Layer_1" xmlns="http://www.w3.org/2000/svg" xmlns:xlink="http://www.w3.org/1999/xlink" x="0px" y="0px"
	 viewBox="0 0 252 252" style="enable-background:new 0 0 252 252;" xml:space="preserve">
<style type="text/css">
	.st0{fill:#FFFFFF;}
	.st1{opacity:0.9;}
	.st2{enable-background:new    ;}
	.st3{fill:#AA77BB;}
	.st4{fill:none;stroke:#AA77BB;stroke-miterlimit:10;}
	.st5{fill:none;stroke:#AA77BB;stroke-width:4;}
	.st6{fill:none;stroke:#AA77BB;stroke-width:3.94;}
	.st7{opacity:0.9;fill:#AA77BB;enable-background:new    ;}
	.st8{fill:#AA77BB;stroke:#AA77BB;stroke-width:1.93;stroke-linecap:round;}
	.st9{fill:#AA77BB;stroke:#AA77BB;stroke-width:3.46;stroke-linecap:round;}
</style>
<title>Asset 5</title>
<g>
	<g id="svg2">
		<g id="layer7">
			<circle id="path25189" class="st0" cx="126" cy="126" r="126"/>
			<g id="g25376">
				<g id="text25193" class="st1">
					<g class="st2">
						<path class="st3" d="M70,105c-4.9,0-8.8-3-11.7-8.9C55.5,90.2,54,82.1,54,72c0-10.1,1.5-18.2,4.4-24.1C61.3,42,65.2,39,70,39
							c3.7,0,6.9,1.9,9.6,5.6c2.6,3.7,4.1,8.7,4.4,14.8h-4.7c-0.2-4-1.1-7.2-2.8-9.6c-1.7-2.4-3.8-3.6-6.4-3.6
							c-3.5,0-6.3,2.2-8.3,6.7c-2,4.5-3.1,10.8-3.1,19.1c0,8.2,1,14.6,3,19.1c2,4.5,4.8,6.7,8.2,6.7c2.7,0,4.9-1.2,6.5-3.7
							s2.6-5.9,2.8-10.4h4.7c-0.3,6.8-1.8,12-4.3,15.8C77.2,103.1,74,105,70,105z"/>
					</g>
					<g class="st2">
						<path class="st4" d="M70,105c-4.9,0-8.8-3-11.7-8.9C55.5,90.2,54,82.1,54,72c0-10.1,1.5-18.2,4.4-24.1C61.3,42,65.2,39,70,39
							c3.7,0,6.9,1.9,9.6,5.6c2.6,3.7,4.1,8.7,4.4,14.8h-4.7c-0.2-4-1.1-7.2-2.8-9.6c-1.7-2.4-3.8-3.6-6.4-3.6
							c-3.5,0-6.3,2.2-8.3,6.7c-2,4.5-3.1,10.8-3.1,19.1c0,8.2,1,14.6,3,19.1c2,4.5,4.8,6.7,8.2,6.7c2.7,0,4.9-1.2,6.5-3.7
							s2.6-5.9,2.8-10.4h4.7c-0.3,6.8-1.8,12-4.3,15.8C77.2,103.1,74,105,70,105z"/>
					</g>
					<g class="st2">
						<path class="st3" d="M70,105c-4.9,0-8.8-3-11.7-8.9C55.5,90.2,54,82.1,54,72c0-10.1,1.5-18.2,4.4-24.1C61.3,42,65.2,39,70,39
							c3.7,0,6.9,1.9,9.6,5.6c2.6,3.7,4.1,8.7,4.4,14.8h-4.7c-0.2-4-1.1-7.2-2.8-9.6c-1.7-2.4-3.8-3.6-6.4-3.6
							c-3.5,0-6.3,2.2-8.3,6.7c-2,4.5-3.1,10.8-3.1,19.1c0,8.2,1,14.6,3,19.1c2,4.5,4.8,6.7,8.2,6.7c2.7,0,4.9-1.2,6.5-3.7
							s2.6-5.9,2.8-10.4h4.7c-0.3,6.8-1.8,12-4.3,15.8C77.2,103.1,74,105,70,105z"/>
					</g>
					<g class="st2">
						<path class="st5" d="M70,105c-4.9,0-8.8-3-11.7-8.9C55.5,90.2,54,82.1,54,72c0-10.1,1.5-18.2,4.4-24.1C61.3,42,65.2,39,70,39
							c3.7,0,6.9,1.9,9.6,5.6c2.6,3.7,4.1,8.7,4.4,14.8h-4.7c-0.2-4-1.1-7.2-2.8-9.6c-1.7-2.4-3.8-3.6-6.4-3.6
							c-3.5,0-6.3,2.2-8.3,6.7c-2,4.5-3.1,10.8-3.1,19.1c0,8.2,1,14.6,3,19.1c2,4.5,4.8,6.7,8.2,6.7c2.7,0,4.9-1.2,6.5-3.7
							s2.6-5.9,2.8-10.4h4.7c-0.3,6.8-1.8,12-4.3,15.8C77.2,103.1,74,105,70,105z"/>
					</g>
				</g>
				<g id="text25197" class="st1">
					<g class="st2">
						<path class="st3" d="M109.6,39c4.4,0,8,3,10.8,9.1c2.8,6,4.2,14,4.2,23.9c0,9.9-1.4,17.9-4.2,23.9c-2.8,6-6.4,9.1-10.8,9.1
							c-4.4,0-8-3-10.8-9.1c-2.8-6.1-4.2-14-4.2-23.9c0-9.9,1.4-17.9,4.2-23.9C101.7,42,105.3,39,109.6,39z M109.6,97.8
							c3.1,0,5.7-2.3,7.7-6.8c2-4.5,3-10.9,3-19s-1-14.5-3-19s-4.5-6.8-7.6-6.8c-3.1,0-5.7,2.3-7.7,6.8s-3,10.9-3,19
							c0,8.1,1,14.4,3,19C103.9,95.5,106.5,97.8,109.6,97.8z"/>
					</g>
					<g class="st2">
						<path class="st4" d="M109.6,39c4.4,0,8,3,10.8,9.1c2.8,6,4.2,14,4.2,23.9c0,9.9-1.4,17.9-4.2,23.9c-2.8,6-6.4,9.1-10.8,9.1
							c-4.4,0-8-3-10.8-9.1c-2.8-6.1-4.2-14-4.2-23.9c0-9.9,1.4-17.9,4.2-23.9C101.7,42,105.3,39,109.6,39z M109.6,97.8
							c3.1,0,5.7-2.3,7.7-6.8c2-4.5,3-10.9,3-19s-1-14.5-3-19s-4.5-6.8-7.6-6.8c-3.1,0-5.7,2.3-7.7,6.8s-3,10.9-3,19
							c0,8.1,1,14.4,3,19C103.9,95.5,106.5,97.8,109.6,97.8z"/>
					</g>
					<g class="st2">
						<path class="st3" d="M109.6,39c4.4,0,8,3,10.8,9.1c2.8,6,4.2,14,4.2,23.9c0,9.9-1.4,17.9-4.2,23.9c-2.8,6-6.4,9.1-10.8,9.1
							c-4.4,0-8-3-10.8-9.1c-2.8-6.1-4.2-14-4.2-23.9c0-9.9,1.4-17.9,4.2-23.9C101.7,42,105.3,39,109.6,39z M109.6,97.8
							c3.1,0,5.7-2.3,7.7-6.8c2-4.5,3-10.9,3-19s-1-14.5-3-19s-4.5-6.8-7.6-6.8c-3.1,0-5.7,2.3-7.7,6.8s-3,10.9-3,19
							c0,8.1,1,14.4,3,19C103.9,95.5,106.5,97.8,109.6,97.8z"/>
					</g>
					<g class="st2">
						<path class="st5" d="M109.6,39c4.4,0,8,3,10.8,9.1c2.8,6,4.2,14,4.2,23.9c0,9.9-1.4,17.9-4.2,23.9c-2.8,6-6.4,9.1-10.8,9.1
							c-4.4,0-8-3-10.8-9.1c-2.8-6.1-4.2-14-4.2-23.9c0-9.9,1.4-17.9,4.2-23.9C101.7,42,105.3,39,109.6,39z M109.6,97.8
							c3.1,0,5.7-2.3,7.7-6.8c2-4.5,3-10.9,3-19s-1-14.5-3-19s-4.5-6.8-7.6-6.8c-3.1,0-5.7,2.3-7.7,6.8s-3,10.9-3,19
							c0,8.1,1,14.4,3,19C103.9,95.5,106.5,97.8,109.6,97.8z"/>
					</g>
				</g>
				<g id="text25201" class="st1">
					<g class="st2">
						<path class="st3" d="M161.5,105h-26.1V39h5.6v58.2h20.5V105z"/>
					</g>
					<g class="st2">
						<path class="st4" d="M161.5,105h-26.1V39h5.6v58.2h20.5V105z"/>
					</g>
					<g class="st2">
						<path class="st3" d="M161.5,105h-26.1V39h5.6v58.2h20.5V105z"/>
					</g>
					<g class="st2">
						<path class="st5" d="M161.5,105h-26.1V39h5.6v58.2h20.5V105z"/>
					</g>
				</g>
				<g id="text25205" class="st1">
					<g class="st2">
						<path class="st3" d="M198.1,105H172V39h25.3v7.8h-20.6V67H196v7.8h-19.3v22.3h21.5V105z"/>
					</g>
					<g class="st2">
						<path class="st4" d="M198.1,105H172V39h25.3v7.8h-20.6V67H196v7.8h-19.3v22.3h21.5V105z"/>
					</g>
					<g class="st2">
						<path class="st3" d="M198.1,105H172V39h25.3v7.8h-20.6V67H196v7.8h-19.3v22.3h21.5V105z"/>
					</g>
					<g class="st2">
						<path class="st5" d="M198.1,105H172V39h25.3v7.8h-20.6V67H196v7.8h-19.3v22.3h21.5V105z"/>
					</g>
				</g>
			</g>
			<g id="g25384">
				<g id="text25209" class="st1">
					<g class="st2">
						<path class="st3" d="M104.1,184h-5.9v-56.1L84.8,184h-5.6l-13.4-56.1V184H60v-66h9.3L82,173l12.8-55h9.3V184z"/>
					</g>
					<g class="st2">
						<path class="st4" d="M104.1,184h-5.9v-56.1L84.8,184h-5.6l-13.4-56.1V184H60v-66h9.3L82,173l12.8-55h9.3V184z"/>
					</g>
					<g class="st2">
						<path class="st3" d="M104.1,184h-5.9v-56.1L84.8,184h-5.6l-13.4-56.1V184H60v-66h9.3L82,173l12.8-55h9.3V184z"/>
					</g>
					<g class="st2">
						<path class="st6" d="M104.1,184h-5.9v-56.1L84.8,184h-5.6l-13.4-56.1V184H60v-66h9.3L82,173l12.8-55h9.3V184z"/>
					</g>
				</g>
				<g id="text25213" class="st1">
					<g class="st2">
						<path class="st3" d="M153.3,184h-6.1l-4.7-20.1h-17.1l-4.5,20.1H115l15.7-66h5.8L153.3,184z M140.8,157l-7.2-30.6l-6.9,30.6
							H140.8z"/>
					</g>
					<g class="st2">
						<path class="st4" d="M153.3,184h-6.1l-4.7-20.1h-17.1l-4.5,20.1H115l15.7-66h5.8L153.3,184z M140.8,157l-7.2-30.6l-6.9,30.6
							H140.8z"/>
					</g>
					<g class="st2">
						<path class="st3" d="M153.3,184h-6.1l-4.7-20.1h-17.1l-4.5,20.1H115l15.7-66h5.8L153.3,184z M140.8,157l-7.2-30.6l-6.9,30.6
							H140.8z"/>
					</g>
					<g class="st2">
						<path class="st6" d="M153.3,184h-6.1l-4.7-20.1h-17.1l-4.5,20.1H115l15.7-66h5.8L153.3,184z M140.8,157l-7.2-30.6l-6.9,30.6
							H140.8z"/>
					</g>
				</g>
				<g id="text25217" class="st1">
					<g class="st2">
						<path class="st3" d="M198.2,184h-7.7l-15.7-32.9l-6.9,10V184H162v-66h5.9v32.7l21.6-32.7h7.9l-18.5,27.1L198.2,184z"/>
					</g>
					<g class="st2">
						<path class="st4" d="M198.2,184h-7.7l-15.7-32.9l-6.9,10V184H162v-66h5.9v32.7l21.6-32.7h7.9l-18.5,27.1L198.2,184z"/>
					</g>
					<g class="st2">
						<path class="st3" d="M198.2,184h-7.7l-15.7-32.9l-6.9,10V184H162v-66h5.9v32.7l21.6-32.7h7.9l-18.5,27.1L198.2,184z"/>
					</g>
					<g class="st2">
						<path class="st6" d="M198.2,184h-7.7l-15.7-32.9l-6.9,10V184H162v-66h5.9v32.7l21.6-32.7h7.9l-18.5,27.1L198.2,184z"/>
					</g>
				</g>
			</g>
			<g id="g25392">
				<path id="path25219" class="st7" d="M84.9,195c-1.7,0-3,1.4-2.9,3.1c0,0,0,0,0,0v35.8c-0.1,1.7,1.2,3,2.9,3.1c0,0,0,0,0,0h82.1
					c1.7,0,3-1.4,2.9-3.1c0,0,0,0,0,0v-35.8c0.1-1.7-1.2-3-2.9-3.1c0,0,0,0,0,0H84.9z"/>
				<path id="path25221" class="st0" d="M92.7,200.1c1.3,0.1,29.1,0.1,34.1,0.1c5,0,31.1-0.1,32.6-0.1c1.5,0,2.8,1.2,2.9,2.7
					c0,0.1,0,0.1,0,0.2v23c0,1.6-2.1,2.8-2.9,3.1s-26.4,0.7-32.6,0.7s-33-0.4-34-0.7s-2.9-1.5-2.9-3.1v-23
					C89.9,201.4,91.1,200.2,92.7,200.1z"/>
				<g id="g25229" class="st1">
					<path id="path25223" class="st8" d="M115.6,215.9l3.3-2.3l3.3-2.3v9l-3.3-2.3L115.6,215.9z"/>
					<rect id="rect25225" x="122" y="215.4" class="st9" width="13.2" height="1"/>
					<rect id="rect25227" x="135.1" y="211.4" class="st9" width="1.1" height="5"/>
				</g>
			</g>
		</g>
	</g>
</g>
</svg>
