<?xml version="1.0" encoding="utf-8"?>
<!-- Generator: Adobe Illustrator 23.0.2, SVG Export Plug-In . SVG Version: 6.00 Build 0)  -->
<svg version="1.1" id="Layer_1" xmlns="http://www.w3.org/2000/svg" xmlns:xlink="http://www.w3.org/1999/xlink" x="0px" y="0px"
	 viewBox="0 0 252.3 252.3" style="enable-background:new 0 0 252.3 252.3;" xml:space="preserve">
<style type="text/css">
	.st0{fill:#A977B4;}
	.st1{enable-background:new    ;}
	.st2{fill:#FFFFFF;}
	.st3{fill:none;stroke:#FFFFFF;stroke-width:4;}
	.st4{fill:none;stroke:#FFFFFF;stroke-width:3.9389;}
	.st5{opacity:0.9;fill:#FFFFFF;enable-background:new    ;}
	.st6{fill:#A977B4;enable-background:new    ;}
	.st7{opacity:0.9;enable-background:new    ;}
	.st8{fill:#FFFFFF;stroke:#FFFFFF;stroke-width:1.9328;stroke-linecap:round;}
	.st9{fill:#FFFFFF;stroke:#FFFFFF;stroke-width:3.4556;stroke-linecap:round;}
</style>
<g id="layer7">
	<circle id="path25189" class="st0" cx="126" cy="126" r="126">
	</circle>
	<g id="g25376" transform="translate(1.9213113e-6)">
		<g class="st1">
			<path class="st2" d="M70,105c-4.9,0-8.8-3-11.7-8.9C55.5,90.2,54,82.1,54,72s1.5-18.2,4.4-24.1C61.3,42,65.2,39,70,39
				c3.7,0,6.9,1.9,9.6,5.6c2.6,3.7,4.1,8.7,4.4,14.8h-4.7c-0.2-4-1.1-7.2-2.8-9.6c-1.7-2.4-3.8-3.6-6.4-3.6c-3.5,0-6.3,2.2-8.3,6.7
				c-2,4.5-3.1,10.8-3.1,19.1c0,8.2,1,14.6,3,19.1s4.8,6.7,8.2,6.7c2.7,0,4.9-1.2,6.5-3.7c1.7-2.4,2.6-5.9,2.8-10.4H84
				c-0.3,6.8-1.8,12-4.3,15.8C77.1,103.1,73.9,105,70,105z"/>
		</g>
		<g class="st1">
			<path class="st3" d="M70,105c-4.9,0-8.8-3-11.7-8.9C55.5,90.2,54,82.1,54,72s1.5-18.2,4.4-24.1C61.3,42,65.2,39,70,39
				c3.7,0,6.9,1.9,9.6,5.6c2.6,3.7,4.1,8.7,4.4,14.8h-4.7c-0.2-4-1.1-7.2-2.8-9.6c-1.7-2.4-3.8-3.6-6.4-3.6c-3.5,0-6.3,2.2-8.3,6.7
				c-2,4.5-3.1,10.8-3.1,19.1c0,8.2,1,14.6,3,19.1s4.8,6.7,8.2,6.7c2.7,0,4.9-1.2,6.5-3.7c1.7-2.4,2.6-5.9,2.8-10.4H84
				c-0.3,6.8-1.8,12-4.3,15.8C77.1,103.1,73.9,105,70,105z"/>
		</g>
		<g class="st1">
			<path class="st2" d="M109.7,39c4.4,0,8,3,10.8,9.1s4.2,14,4.2,23.9c0,9.9-1.4,17.9-4.2,23.9s-6.4,9.1-10.8,9.1
				c-4.4,0-8-3-10.8-9.1c-2.8-6.1-4.2-14-4.2-23.9c0-9.9,1.4-17.9,4.2-23.9C101.7,42,105.3,39,109.7,39z M109.6,97.8
				c3.1,0,5.7-2.3,7.7-6.8c2-4.5,3-10.9,3-19s-1-14.5-3-19c-2-4.5-4.5-6.8-7.6-6.8c-3.2,0-5.7,2.3-7.8,6.8c-2,4.5-3,10.9-3,19
				c0,8.1,1,14.4,3,19C104,95.5,106.5,97.8,109.6,97.8z"/>
		</g>
		<g class="st1">
			<path class="st3" d="M109.7,39c4.4,0,8,3,10.8,9.1s4.2,14,4.2,23.9c0,9.9-1.4,17.9-4.2,23.9s-6.4,9.1-10.8,9.1
				c-4.4,0-8-3-10.8-9.1c-2.8-6.1-4.2-14-4.2-23.9c0-9.9,1.4-17.9,4.2-23.9C101.7,42,105.3,39,109.7,39z M109.6,97.8
				c3.1,0,5.7-2.3,7.7-6.8c2-4.5,3-10.9,3-19s-1-14.5-3-19c-2-4.5-4.5-6.8-7.6-6.8c-3.2,0-5.7,2.3-7.8,6.8c-2,4.5-3,10.9-3,19
				c0,8.1,1,14.4,3,19C104,95.5,106.5,97.8,109.6,97.8z"/>
		</g>
		<g class="st1">
			<path class="st2" d="M161.3,105h-26V39h5.6v58.2h20.4V105z"/>
		</g>
		<g class="st1">
			<path class="st3" d="M161.3,105h-26V39h5.6v58.2h20.4V105z"/>
		</g>
		<g class="st1">
			<path class="st2" d="M198,105h-26V39h25.2v7.8h-20.6V67h19.2v7.8h-19.2v22.3H198V105z"/>
		</g>
		<g class="st1">
			<path class="st3" d="M198,105h-26V39h25.2v7.8h-20.6V67h19.2v7.8h-19.2v22.3H198V105z"/>
		</g>
	</g>
	<g id="g25384" transform="matrix(1,0,0,1.0312499,0,-30.87486)">
		<g class="st1">
			<path class="st2" d="M104,208.4h-5.9v-54.4l-13.3,54.4h-5.6l-13.3-54.4v54.4H60v-64h9.3L82,197.7l12.7-53.3h9.3V208.4z"/>
		</g>
		<g class="st1">
			<path class="st4" d="M104,208.4h-5.9v-54.4l-13.3,54.4h-5.6l-13.3-54.4v54.4H60v-64h9.3L82,197.7l12.7-53.3h9.3V208.4z"/>
		</g>
		<g class="st1">
			<path class="st2" d="M153,208.4H147l-4.7-19.5h-17l-4.5,19.5H115l15.6-64h5.8L153,208.4z M140.7,182.2l-7.2-29.7l-6.8,29.7H140.7
				z"/>
		</g>
		<g class="st1">
			<path class="st4" d="M153,208.4H147l-4.7-19.5h-17l-4.5,19.5H115l15.6-64h5.8L153,208.4z M140.7,182.2l-7.2-29.7l-6.8,29.7H140.7
				z"/>
		</g>
		<g class="st1">
			<path class="st2" d="M198,208.4h-7.7l-15.6-31.9l-6.9,9.7v22.2H162v-64h5.8v31.7l21.5-31.7h7.9l-18.5,26.3L198,208.4z"/>
		</g>
		<g class="st1">
			<path class="st4" d="M198,208.4h-7.7l-15.6-31.9l-6.9,9.7v22.2H162v-64h5.8v31.7l21.5-31.7h7.9l-18.5,26.3L198,208.4z"/>
		</g>
	</g>
	<g id="g25392" transform="translate(0,1)">
		<path id="path25219" class="st5" d="M84.9,194c-1.6,0-2.9,1.4-2.9,3.1c0,11.9,0,23.9,0,35.8c0,1.7,1.3,3.1,2.9,3.1h82.1
			c1.6,0,2.9-1.4,2.9-3.1c0-11.9,0-23.9,0-35.8c0-1.7-1.3-3.1-2.9-3.1C139.7,194,112.3,194,84.9,194z"/>
		<path id="path25221" class="st6" d="M92.7,199.1c1.3,0.1,29.1,0.1,34.1,0.1c5,0,31.1-0.1,32.6-0.1c1.6-0.1,2.9,1.2,2.9,2.9V225
			c0,1.6-2.1,2.8-2.9,3.1c-0.9,0.3-26.5,0.7-32.6,0.7c-6.2,0-33-0.4-34.1-0.7c-1-0.3-2.9-1.5-2.9-3.1V202
			C89.8,200.4,91.3,199.1,92.7,199.1z"/>
		<g id="g25229" transform="matrix(1.0853095,0,0,1,201.53386,312.37802)" class="st7">
			<path id="path25223" class="st8" d="M-79.2-98.5l3-2.2l3-2.3v4.5v4.5l-3-2.3L-79.2-98.5z"/>
			<rect id="rect25225" x="-73.3" y="-99" class="st9" width="12.2" height="1"/>
			<rect id="rect25227" x="-61.2" y="-103" class="st9" width="1" height="5"/>
		</g>
	</g>
</g>
</svg>
