<?xml version="1.0" encoding="utf-8"?>
<!-- Generator: Adobe Illustrator 23.0.2, SVG Export Plug-In . SVG Version: 6.00 Build 0)  -->
<svg version="1.1" id="Layer_1" xmlns="http://www.w3.org/2000/svg" xmlns:xlink="http://www.w3.org/1999/xlink" x="0px" y="0px"
	 viewBox="0 0 50 50" style="enable-background:new 0 0 50 50;" xml:space="preserve">
<style type="text/css">
	.st0{fill:#B5B5B5;}
</style>
<path class="st0" d="M41.7,35.5c-0.7,1.5-1.4,2.9-2.3,4.2c-1.2,1.7-2.2,2.9-3,3.6c-1.2,1.1-2.5,1.7-3.8,1.7c-1,0-2.2-0.3-3.5-0.8
	c-1.4-0.6-2.6-0.8-3.8-0.8c-1.2,0-2.5,0.3-3.9,0.8C20,44.7,18.8,45,18,45c-1.3,0.1-2.6-0.5-3.9-1.7c-0.8-0.7-1.9-2-3.1-3.7
	c-1.3-1.9-2.4-4.1-3.3-6.5c-0.9-2.7-1.4-5.3-1.4-7.8c0-2.9,0.6-5.4,1.9-7.5c1-1.7,2.3-3,3.9-4s3.4-1.5,5.3-1.5c1,0,2.4,0.3,4.1,1
	c1.7,0.6,2.8,1,3.2,1c0.4,0,1.6-0.4,3.6-1.1c1.9-0.7,3.6-1,4.9-0.9c3.6,0.3,6.3,1.7,8.1,4.3c-3.2,2-4.8,4.7-4.8,8.2c0,2.7,1,5,3,6.8
	c0.9,0.8,1.9,1.5,3,2C42.3,34.2,42,34.9,41.7,35.5L41.7,35.5z M33.4,3.4c0,2.2-0.8,4.2-2.4,6c-1.9,2.2-4.2,3.5-6.7,3.3
	c0-0.3,0-0.5,0-0.8c0-2.1,0.9-4.3,2.5-6.1c0.8-0.9,1.8-1.7,3-2.3s2.4-0.9,3.5-1C33.4,2.8,33.4,3.1,33.4,3.4L33.4,3.4z"/>
</svg>
