<svg width="50" height="50" xmlns="http://www.w3.org/2000/svg">
 <style type="text/css">.st0{fill:#FFFFFF;}
	.st1{fill:#AA77BB;}</style>

 <g>
  <title>background</title>
  <rect fill="none" id="canvas_background" height="402" width="582" y="-1" x="-1"/>
 </g>
 <g>
  <title>Layer 1</title>
  <g id="svg_2">
   <rect id="svg_3" height="11.7" width="11.7" class="st1" y="19.1" x="19.1"/>
   <path id="svg_4" d="m42.5,27c1,0 2,-1 2,-2c0,-1.2 -1,-2 -2,-2l-3.9,0l0,-3.9l3.9,0c1,0 2,-1 2,-1.9c0,-1.2 -1,-2 -2,-2l-3.9,0l0,-1.9c0,-1.2 -1,-1.9 -2,-1.9l-2,0l0,-4c0,-1.2 -1,-1.9 -2,-1.9c-1,0 -1.9,0.8 -1.9,1.9l0,3.9l-3.7,0l0,-3.9c0,-1.2 -1,-1.9 -2,-1.9s-2,0.8 -2,1.9l0,3.9l-3.9,0l0,-3.9c0,-1.2 -1,-1.9 -1.9,-1.9c-1,0 -2,0.8 -2,1.9l0,3.9l-1.9,0c-1,0 -1.9,0.8 -1.9,1.9l0,1.9l-4,0c-1,0 -1.9,0.8 -1.9,2c0,1 1,1.9 1.9,1.9l3.9,0l0,4l-3.9,0c-1,0 -1.9,0.8 -1.9,2c0,1 1,2 1.9,2l3.9,0l0,3.9l-3.9,0c-1,0 -1.9,0.8 -1.9,1.9c0,1 1,2 1.9,2l3.9,0l0,2c0,1 1,2 1.9,2l1.9,0l0,3.9c0,1 1,2 2,2c1,0 1.9,-1 1.9,-2l0,-3.9l4,0l0,3.9c0,1 1,2 2,2s2,-1 2,-2l0,-3.9l3.9,0l0,3.9c0,1 1,2 1.9,2c1,0 2,-1 2,-2l0,-3.9l2,0c1,0 2,-1 2,-2l0,-2l3.9,0c1,0 2,-1 2,-2c0,-1.2 -1,-1.9 -2,-1.9l-3.9,0l0,-3.9l3.7,0zm-7.7,7.8l-19.5,0l0,-19.5l19.5,0l0,19.5z" class="st1"/>
  </g>
 </g>
</svg>